<svg id="Layer_1" data-name="Layer 1" xmlns="http://www.w3.org/2000/svg" viewBox="0 0 562.54 184.41"><defs><style>.cls-1{fill:#011f5b;}.cls-2{fill:#fff;}.cls-3{fill:#900;}</style></defs><path class="cls-1" d="M210.43,72.92c6.35,2.2,10,2.45,17.36,2.45,20.78,0,34-11.25,34-30.32,0-14.92-8.32-35-34-35H210.43V72.92Zm0,45.49c0,17.36,4.15,22.25,15.89,22.25v4.15H176v-4.15c9.78,0,15.89-3.18,15.89-21.77V31.11C191.84,14,187.68,8.86,176,8.86V4.7h51.1c38.64,0,54.29,20.54,54.29,39.86,0,23.23-17.61,36.19-49.4,36.19a162.46,162.46,0,0,1-21.51-1.47v39.13Z"/><path class="cls-1" d="M331.71,87.84c.73-19.07-12.23-26.9-23.23-26.9-14.43,0-23,10.76-24,26.9ZM284.51,92c-.48,38.88,22.75,48.66,34.48,48.66,12,0,18.1-4.16,30.57-18.1v6.36c-10.51,13.45-20.54,18.58-35.7,18.58-27.14,0-46.7-18.82-46.7-45s19.07-46.7,43.52-46.7c20.05,0,38.64,16.14,37.41,36.19Z"/><path class="cls-1" d="M442,126c0,11.25,2.46,14.68,14.68,14.68v4.15H410.44v-4.15c11.74,0,14.92-2.69,14.92-10.76V84.66c0-13.94-10-19.81-19.32-19.81-8.55,0-16.14,5.38-24.69,16.88V124c0,13.2,1.7,16.63,14.67,16.63v4.15H350.29v-4.15c11.49,0,14.43-1,14.43-16.63V75.37c0-10.52-2.69-12.72-14.43-12.72V58.5l26.9-2.69h4.16V73.17c10.27-11.74,20.29-17.36,31.3-17.36,14.42,0,29.33,10.27,29.33,31.05V126Z"/><path class="cls-1" d="M547.87,126c0,11.25,2.44,14.68,14.67,14.68v4.15H516.32v-4.15c11.74,0,14.91-2.69,14.91-10.76V84.66c0-13.94-10-19.81-19.31-19.81-8.56,0-16.14,5.38-24.7,16.88V124c0,13.2,1.72,16.63,14.67,16.63v4.15H456.17v-4.15c11.49,0,14.43-1,14.43-16.63V75.37c0-10.52-2.69-12.72-14.43-12.72V58.5l26.9-2.69h4.15V73.17c10.27-11.74,20.3-17.36,31.3-17.36,14.43,0,29.35,10.27,29.35,31.05V126Z"/><path class="cls-1" d="M180.92,169.68c0,3.88,1.05,6.85,5.18,6.85,3.8,0,5.8-2.55,5.8-7v-7.71a11.91,11.91,0,0,0-.16-1.5c-.14-1-1.09-1.39-2.39-1.52v-.73h6.55v.73c-1.34.13-2.25.52-2.39,1.52a11.78,11.78,0,0,0-.17,1.5v7.82c0,6-3.8,8.19-7.37,8.19-5.91,0-7.74-3-7.74-8v-8.27c0-2.58.11-2.44-2.39-2.74v-.73h7.46v.73c-2.49.3-2.38.16-2.38,2.74v8.13Z"/><path class="cls-1" d="M211.6,177.5c-3.4-4-6.93-8.24-10.42-12.35v9.46a7.45,7.45,0,0,0,.13,1.16c.1.77.83,1.07,2.24,1.17v.56h-5.24v-.56c1-.1,1.73-.4,1.84-1.17a8.9,8.9,0,0,0,.13-1.16V164.53a3,3,0,0,0-2.48-1.45v-.56h3.89c3.19,3.87,6.51,7.81,9.7,11.69h0v-8.8a8.9,8.9,0,0,0-.13-1.16c-.11-.77-.83-1.07-2.25-1.17v-.56h5.25v.56c-1,.1-1.74.4-1.84,1.17a7.45,7.45,0,0,0-.13,1.16V177.5Z"/><path class="cls-1" d="M222.58,174.83c0,2-.08,1.88,1.84,2.11v.56h-5.76v-.56c1.93-.23,1.85-.12,1.85-2.11v-9.64c0-2,.08-1.88-1.85-2.11v-.56h5.76v.56c-1.92.23-1.84.12-1.84,2.11v9.64Z"/><path class="cls-1" d="M233.54,163.08c-1.18,0-2,.34-1.33,2.39.84,2.53,2.08,6.21,3.19,9.46,1.37-3.27,2.68-6.57,4-9.84.53-1.35,0-2-1.48-2v-.56h4.62v.56a1.81,1.81,0,0,0-1.78,1.28c-1.79,4.39-3.61,8.76-5.41,13.14h-1.09c-1.31-3.7-2.76-7.83-4.07-11.47-.79-2.29-1.45-2.95-2.48-2.95v-.56h5.82v.56Z"/><path class="cls-1" d="M245.85,176.94c1.93-.23,1.84-.12,1.84-2.11v-9.64c0-2,.09-1.88-1.84-2.11v-.56h9.57V166h-.56c-.22-1.59-.64-2.77-2.18-2.77h-2.91v6.12h1.79c1.35,0,1.93-.53,2-1.86h.56V172h-.56c0-1.26-.53-2-2-2h-1.79v4.84c0,1.82.83,2,2.76,2,3.1,0,2.95-.88,3.94-3.17H257l-.64,3.85H245.85v-.56Z"/><path class="cls-1" d="M264.21,170.18H266c1.86,0,2.72-1.41,2.72-3.83s-1.29-3.15-2.85-3.15h-1.65v7Zm-3.91-7.66h6.23c2.16,0,4.32,1.13,4.32,3.64a4.6,4.6,0,0,1-3,4.37l2.1,3.18a14.31,14.31,0,0,0,3,3.51v.28h-2.21c-1.26,0-1.94-2.33-4.53-6.64h-2v4c0,2-.08,1.88,1.84,2.11v.56H260.3v-.56c1.92-.23,1.84-.12,1.84-2.11v-9.64c0-2,.08-1.88-1.84-2.11v-.56Z"/><path class="cls-1" d="M283.57,165.71c-.18-1.5-1-2.7-2.7-2.7a2.12,2.12,0,0,0-2.36,2.23c0,1.5,1.5,2.4,3.64,4s3,2.78,3,4.56c0,2.54-2.61,4-5.18,4a10.11,10.11,0,0,1-3.66-.68.32.32,0,0,1-.15-.31v-3.08h.55a3.32,3.32,0,0,0,3.45,3.32,2.71,2.71,0,0,0,2.76-2.72c0-1.39-.75-2.53-4-4.64-1.15-.78-2.59-1.61-2.59-3.94,0-1.93,2.14-3.45,4.6-3.45a10.06,10.06,0,0,1,3,.41.2.2,0,0,1,.15.23v2.81Z"/><path class="cls-1" d="M292.92,174.83c0,2-.09,1.88,1.84,2.11v.56H289v-.56c1.93-.23,1.84-.12,1.84-2.11v-9.64c0-2,.09-1.88-1.84-2.11v-.56h5.76v.56c-1.93.23-1.84.12-1.84,2.11v9.64Z"/><path class="cls-1" d="M305.33,174.83c0,2-.08,1.88,1.84,2.11v.56h-5.76v-.56c1.93-.23,1.84-.12,1.84-2.11V163.2h-1.92c-1.86,0-2.29,1.18-3,2.59h-.53l.57-3.27h11.84l.58,3.27h-.53c-.71-1.41-1.14-2.59-3-2.59h-1.93v11.63Z"/><path class="cls-1" d="M317,176.94c1.92-.23,1.84-.12,1.84-2.11v-3.3l-3.3-6.53c-.7-1.39-1.3-1.92-2.29-1.92v-.56h5.46v.56c-1.62,0-1.48.81-.94,1.92l2.59,5.37,2.95-5.37c.73-1.3,0-1.92-1.22-1.92v-.56h4.41v.56c-.6,0-1.18.27-1.75,1.3l-3.58,6.48a3.79,3.79,0,0,0-.26,1.57v2.4c0,2-.08,1.88,1.85,2.11v.56H317v-.56Z"/><path class="cls-1" d="M346,167c0-2.88-1.75-3-2.19-3-3,0-5,5.39-5,9,0,1.45.25,4.05,2.3,4.05,3.17,0,4.86-5.21,4.86-10Zm-9.71,5.41c0-3.63,3.13-9.07,7.76-9.07,3.7,0,4.5,2.5,4.5,5,0,3.05-2.44,9.55-7.74,9.55-3.55,0-4.52-2.86-4.52-5.47Z"/><path class="cls-1" d="M362.48,164.22l-.66.58h-3.64A166.47,166.47,0,0,1,353,184.41h-1.25l4-19.61h-2.63l.24-1.17H356c1.47-5.91,6.35-6.52,7.51-6.52a4.73,4.73,0,0,1,2.39.5l-.34,1.83-.69.34a2.9,2.9,0,0,0-2.44-1.61c-1.66,0-2.91,1.14-3.58,4.13l-.3,1.33h4.07l-.11.59Z"/><path class="cls-1" d="M379.41,174c0,2.57-.12,2.44,2.38,2.74v.72h-7.47v-.72c2.5-.3,2.39-.17,2.39-2.74V161.55c0-2.58.11-2.44-2.39-2.74v-.73h7.27c4.61,0,6.88,1.83,6.88,5.17,0,4-3.6,6.15-7.85,5.9v-.55c3.47.05,5.08-2,5.08-5.08s-1.5-4.55-4.61-4.55h-1.68V174Z"/><path class="cls-1" d="M392.3,176.94c1.93-.23,1.84-.12,1.84-2.11v-9.64c0-2,.09-1.88-1.84-2.11v-.56h9.57V166h-.56c-.22-1.59-.64-2.77-2.18-2.77h-2.91v6.12H398c1.35,0,1.93-.53,2-1.86h.56V172H400c0-1.26-.53-2-2-2h-1.79v4.84c0,1.82.83,2,2.76,2,3.1,0,2.95-.88,3.94-3.17h.55l-.64,3.85H392.3v-.56Z"/><path class="cls-1" d="M420.47,177.5c-3.41-4-6.94-8.24-10.43-12.35v9.46a8.9,8.9,0,0,0,.13,1.16c.11.77.83,1.07,2.25,1.17v.56h-5.24v-.56c1-.1,1.73-.4,1.84-1.17a9,9,0,0,0,.12-1.16V164.53a3,3,0,0,0-2.48-1.45v-.56h3.89c3.2,3.87,6.51,7.81,9.7,11.69h.05v-8.8a8.9,8.9,0,0,0-.13-1.16c-.11-.77-.83-1.07-2.25-1.17v-.56h5.24v.56c-1,.1-1.73.4-1.83,1.17a7.37,7.37,0,0,0-.14,1.16V177.5Z"/><path class="cls-1" d="M439.64,177.5c-3.4-4-6.93-8.24-10.42-12.35v9.46a8.9,8.9,0,0,0,.13,1.16c.11.77.83,1.07,2.24,1.17v.56h-5.23v-.56c1-.1,1.72-.4,1.83-1.17a7.45,7.45,0,0,0,.13-1.16V164.53a3,3,0,0,0-2.48-1.45v-.56h3.89c3.19,3.87,6.51,7.81,9.7,11.69h0v-8.8a9,9,0,0,0-.12-1.16c-.11-.77-.84-1.07-2.25-1.17v-.56h5.24v.56c-1,.1-1.73.4-1.84,1.17a8.9,8.9,0,0,0-.13,1.16V177.5Z"/><path class="cls-1" d="M453.58,165.71c-.17-1.5-1-2.7-2.7-2.7a2.12,2.12,0,0,0-2.35,2.23c0,1.5,1.5,2.4,3.64,4s3,2.78,3,4.56c0,2.54-2.61,4-5.17,4a10.16,10.16,0,0,1-3.67-.68.33.33,0,0,1-.15-.31v-3.08h.56a3.32,3.32,0,0,0,3.45,3.32,2.71,2.71,0,0,0,2.76-2.72c0-1.39-.75-2.53-4-4.64-1.16-.78-2.59-1.61-2.59-3.94,0-1.93,2.14-3.45,4.6-3.45a10.06,10.06,0,0,1,3,.41.21.21,0,0,1,.15.23v2.81Z"/><path class="cls-1" d="M462.2,176.94c1.93-.23,1.85-.12,1.85-2.11v-3.3l-3.3-6.53c-.71-1.39-1.3-1.92-2.29-1.92v-.56h5.46v.56c-1.63,0-1.48.81-.94,1.92l2.59,5.37,2.95-5.37c.73-1.3,0-1.92-1.22-1.92v-.56h4.41v.56c-.6,0-1.18.27-1.75,1.3l-3.58,6.48a3.63,3.63,0,0,0-.26,1.57v2.4c0,2-.08,1.88,1.84,2.11v.56H462.2v-.56Z"/><path class="cls-1" d="M475.22,176.94c1.92-.23,1.84-.12,1.84-2.11v-9.64c0-2,.08-1.88-1.84-2.11v-.56H481v.56c-1.93.23-1.84.12-1.84,2.11v10c0,1.5.83,1.65,2.73,1.65,3.11,0,3-.88,4-3.17h.54l-.64,3.85H475.22v-.56Z"/><path class="cls-1" d="M493.84,163.08c-1.18,0-2,.34-1.33,2.39.84,2.53,2.08,6.21,3.19,9.46,1.37-3.27,2.68-6.57,4-9.84.54-1.35,0-2-1.47-2v-.56h4.62v.56a1.78,1.78,0,0,0-1.77,1.28c-1.8,4.39-3.62,8.76-5.42,13.14h-1.09c-1.31-3.7-2.76-7.83-4.07-11.47-.79-2.29-1.45-2.95-2.48-2.95v-.56h5.82v.56Z"/><path class="cls-1" d="M511.59,171.72l-2.28-6.95h0l-2.54,6.95Zm-5.19.82-1,2.86a1.07,1.07,0,0,0,1.07,1.54v.56H502.6v-.56a1.78,1.78,0,0,0,1.54-1.07c.92-1.88,3.42-8.88,5.2-13.61h1.2c1.45,4.31,3.64,10.9,4.36,12.8.47,1.2.82,1.88,1.74,1.88v.56h-5v-.56c1.35,0,1.48-.7,1.13-1.64l-.92-2.76Z"/><path class="cls-1" d="M533.12,177.5c-3.4-4-6.94-8.24-10.43-12.35v9.46a8.9,8.9,0,0,0,.13,1.16c.11.77.84,1.07,2.25,1.17v.56h-5.24v-.56c1-.1,1.73-.4,1.84-1.17a8.9,8.9,0,0,0,.13-1.16V164.53a3,3,0,0,0-2.49-1.45v-.56h3.9c3.18,3.87,6.51,7.81,9.69,11.69h0v-8.8a9,9,0,0,0-.12-1.16c-.11-.77-.84-1.07-2.25-1.17v-.56h5.24v.56c-1,.1-1.73.4-1.84,1.17a9,9,0,0,0-.12,1.16V177.5Z"/><path class="cls-1" d="M543.24,174.83c0,2-.08,1.88,1.84,2.11v.56h-5.75v-.56c1.92-.23,1.84-.12,1.84-2.11v-9.64c0-2,.08-1.88-1.84-2.11v-.56h5.75v.56c-1.92.23-1.84.12-1.84,2.11v9.64Z"/><path class="cls-1" d="M557.37,171.72l-2.27-6.95h-.05l-2.54,6.95Zm-5.18.82-1,2.86a1.07,1.07,0,0,0,1.07,1.54v.56h-3.89v-.56a1.78,1.78,0,0,0,1.54-1.07c.92-1.88,3.42-8.88,5.2-13.61h1.2c1.46,4.31,3.64,10.9,4.37,12.8.47,1.2.81,1.88,1.73,1.88v.56h-5v-.56c1.35,0,1.48-.7,1.13-1.64l-.91-2.76Z"/><path class="cls-2" d="M158.94,0H0V79.23c-.11,34.49,19,59.47,35.06,74.35C52.71,170,72.18,179.39,78.68,180.81l.79.17.8-.17c6.49-1.42,26-10.86,43.61-27.23,16.05-14.88,35.17-39.86,35.06-74.35V0Z"/><path class="cls-3" d="M149.16,33.17h0a2.89,2.89,0,0,1,.64.62,1.58,1.58,0,0,1,.27.92,1.54,1.54,0,0,1-.27.91,2.89,2.89,0,0,1-.64.62c-.36.28-.7.55-.7,1v2.82H115.13V37.25c0-.46-.34-.73-.7-1a2.89,2.89,0,0,1-.64-.62,1.69,1.69,0,0,1,0-1.83,2.89,2.89,0,0,1,.64-.62c.36-.28.7-.54.7-1V23c0-.46-.34-.73-.7-1a2.89,2.89,0,0,1-.64-.62,1.69,1.69,0,0,1,0-1.83,2.89,2.89,0,0,1,.64-.62c.36-.28.7-.55.7-1V15h.42a13.37,13.37,0,0,0,4.85-.55,9.88,9.88,0,0,0,1.41-.79,6.93,6.93,0,0,1,3.91-1.37,10.4,10.4,0,0,1,3.83,1,6.52,6.52,0,0,0,2.13.63h.23a6.64,6.64,0,0,0,2.14-.63,10.3,10.3,0,0,1,3.82-1,6.93,6.93,0,0,1,3.91,1.37,9.88,9.88,0,0,0,1.41.79A13.37,13.37,0,0,0,148,15h.42v2.91c0,.46.34.73.7,1a2.89,2.89,0,0,1,.64.62,1.69,1.69,0,0,1,0,1.83,2.89,2.89,0,0,1-.64.62c-.36.28-.7.55-.7,1v9.21c0,.47.34.73.7,1ZM108.3,38c-2.58,4.12-7.55,5.13-7.76,5.17a17.58,17.58,0,0,1-3,.26h0c-5.2,0-10-2.26-14.87-4.78-.55-.28-1.16-.62-1.81-1-3.11-1.71-7.45-4.08-11.12-4.08a6.32,6.32,0,0,0-3,.68l-.15.08v.17a4.56,4.56,0,0,1-.27,1.35,10.7,10.7,0,0,1-3.43,3.9c-2.14,1.53-4.77,3.1-8,3.1a4.45,4.45,0,0,1-1.35-.2,3.13,3.13,0,0,1-1.46-1,3.77,3.77,0,0,1-.45-.78,3.12,3.12,0,0,1-.19-.73l0-.19-.19-.06a2.44,2.44,0,0,1-2-2.22,3.56,3.56,0,0,1,1.1-2.07c.85-1,1.58-1.86.39-3-.12-.11-.25-.21-.37-.3a3.23,3.23,0,0,1-.49-.41c-1-1.12-.43-3.45-.06-4.85l0-.15a25.07,25.07,0,0,1,1.88-4.82c1.18-2.33,2.59-4.95,4.57-6.61a.19.19,0,0,1,.15,0,.2.2,0,0,1,.12.08c0,.06.26.39.57.91l.33.56.21-.62a4.69,4.69,0,0,1,2.7-3.17,3.51,3.51,0,0,1,3.19.65l.27.19.17-.27a2.87,2.87,0,0,1,2.35-1.49,4.15,4.15,0,0,1,3,1.42l.19.2.21-.18a5.47,5.47,0,0,1,3.76-1.44,2.84,2.84,0,0,1,2.24,2.06l.11.33.31-.16a3.42,3.42,0,0,1,3.36,0,2.07,2.07,0,0,1,.86,2.08l0,.39.38-.07c1-.16,2.75-.27,3.81.81a3.21,3.21,0,0,1,.79,2.72l0,.38.38,0a2.57,2.57,0,0,1,2.6.93,2.65,2.65,0,0,1,.12,2.05l-.08.3.3.07a2.22,2.22,0,0,1,1.62,1.14A4.29,4.29,0,0,1,90,27.68l-.07.25.25.11a3.14,3.14,0,0,1,1.63,1.43,3.68,3.68,0,0,1,0,3l-.08.19.16.14c1.1,1,2.22,1.88,3.31,2.68,2.22,1.61,5.68,2.47,8,.54a3.34,3.34,0,0,0,1-3.32,2.66,2.66,0,0,0-2-2.1c-1.78-.39-3.19,1.3-4.33,3a.21.21,0,0,1-.17.08.21.21,0,0,1-.15-.11c-1.05-2.52-1.1-4.61-.15-6.21a5.91,5.91,0,0,1,4.26-2.61l.26,0v-.26c0-3,.67-5.15,2.12-6.46a6.14,6.14,0,0,1,5.18-1.3.24.24,0,0,1,.13.09.18.18,0,0,1,0,.16c-2,4.78-1.49,6.57-.41,10.49l.29,1.08h0c1,3.72.69,6.9-.9,9.45ZM44.52,33.17h0a2.89,2.89,0,0,1,.64.62,1.58,1.58,0,0,1,.27.92,1.54,1.54,0,0,1-.27.91,2.89,2.89,0,0,1-.64.62c-.36.28-.7.55-.7,1v2.82H10.49V37.25c0-.46-.34-.73-.7-1a2.89,2.89,0,0,1-.64-.62,1.69,1.69,0,0,1,0-1.83,2.89,2.89,0,0,1,.64-.62c.36-.28.7-.54.7-1V23c0-.46-.34-.73-.7-1a2.89,2.89,0,0,1-.64-.62,1.69,1.69,0,0,1,0-1.83,2.89,2.89,0,0,1,.64-.62c.36-.28.7-.55.7-1V15h.42a13.37,13.37,0,0,0,4.85-.55,9.88,9.88,0,0,0,1.41-.79,6.93,6.93,0,0,1,3.91-1.37,10.4,10.4,0,0,1,3.83,1,6.52,6.52,0,0,0,2.13.63h.23a6.64,6.64,0,0,0,2.14-.63,10.3,10.3,0,0,1,3.82-1,6.93,6.93,0,0,1,3.91,1.37,9.88,9.88,0,0,0,1.41.79A13.37,13.37,0,0,0,43.4,15h.42v2.91c0,.46.34.73.7,1a2.89,2.89,0,0,1,.64.62,1.69,1.69,0,0,1,0,1.83,2.89,2.89,0,0,1-.64.62c-.36.28-.7.55-.7,1v9.21c0,.47.34.73.7,1ZM4,4.19s.21,46,0,45.82H154.94V4.19Z"/><path class="cls-1" d="M56,31.19a2.29,2.29,0,0,1,1.53.55c.16.13.32.27.45.4a.79.79,0,0,1-.05,1.19c-.37.3-.8.6-1.06.78-.62.43-1.67,1.2-2.4.59-.37-.31.36-.81,0-2.07-.25-1,.73-1.44,1.49-1.44Z"/><path class="cls-1" d="M56.26,16.33a22.06,22.06,0,0,0-4,6,24.38,24.38,0,0,0-1.83,4.69l0,.15c-.29,1.1-.89,3.38-.1,4.23a2.71,2.71,0,0,0,.4.33,4.41,4.41,0,0,1,.43.35c1.64,1.56.5,2.91-.33,3.9a3.07,3.07,0,0,0-.95,1.64c0,1.16,1.4,1.56,1.83,1.66a.49.49,0,0,1,.37.43,2.42,2.42,0,0,0,.17.85,2.73,2.73,0,0,0,.36.63,2.5,2.5,0,0,0,1.15.81,3.41,3.41,0,0,0,1.14.17c3.09,0,5.6-1.51,7.65-3a9.88,9.88,0,0,0,3.2-3.59,3.57,3.57,0,0,0,.22-1l-2.16-.37h-.06a.57.57,0,0,1-.41-.45c-.07-.44.32-.7,1.08-1.22.23-.15.46-.31.68-.48,1.14-.84,2.06-1.5,2.58-1.87a17.47,17.47,0,0,1-1.53-2.08A10.6,10.6,0,0,0,65.26,27a3.64,3.64,0,0,0-4.49-.89A12.9,12.9,0,0,0,59,27.46a16,16,0,0,1-1.47,1.2.47.47,0,0,1-.6-.73,2.71,2.71,0,0,1,.24-.23c.7-.66,2.33-2.2,2.33-3.29,0-2.53-2.42-6.68-3.27-8.08ZM69.79,32.91c3.76,0,8,2.34,11.4,4.18l1.79,1c5.73,3,11.37,5.52,17.44,4.45,0,0,4.9-1,7.32-4.88,1.49-2.39,1.77-5.39.83-8.92q-.16-.57-.3-1.08c-1-3.67-1.58-5.75.2-10.31a5.21,5.21,0,0,0-4,1.19c-1.36,1.23-2,3.38-1.9,6.37a.48.48,0,0,1-.43.5,5.41,5.41,0,0,0-4.18,2.35,5.59,5.59,0,0,0-.12,4.78c.92-1.26,2.49-3,4.49-2.52a3.32,3.32,0,0,1,2.51,2.58,4,4,0,0,1-1.21,4C101,38.71,97.18,37.8,94.77,36a54.38,54.38,0,0,1-8.65-8l-1.53-1.75a43.06,43.06,0,0,0-6.11-6.19,16.64,16.64,0,0,0-10.83-3.14,20.31,20.31,0,0,0-8.73,2.28,13.48,13.48,0,0,1,1.57,5.22,2.32,2.32,0,0,1-.15.81A4.62,4.62,0,0,1,66,26.33a10.47,10.47,0,0,1,1,1.31A13.26,13.26,0,0,0,68.7,30a.49.49,0,0,1,.14.38.46.46,0,0,1-.2.36s-1.25.88-3,2.18c-.23.18-.48.35-.71.5l-.13.09,1.55.26a7.09,7.09,0,0,1,3.45-.83ZM97.55,43.72c-5.2,0-10.08-2.26-15-4.81l-1.81-1c-4-2.18-9.94-5.44-13.83-3.4A4.79,4.79,0,0,1,66.61,36a10.85,10.85,0,0,1-3.54,4c-2.17,1.56-4.85,3.16-8.21,3.16A4.5,4.5,0,0,1,53.41,43a3.46,3.46,0,0,1-1.6-1.13,3.93,3.93,0,0,1-.49-.85,2.93,2.93,0,0,1-.2-.8,2.75,2.75,0,0,1-2.24-2.51,3.69,3.69,0,0,1,1.17-2.26c.94-1.12,1.36-1.69.41-2.59-.1-.09-.22-.18-.34-.27a3.62,3.62,0,0,1-.53-.45c-1.16-1.24-.51-3.67-.13-5.12l0-.15a24.85,24.85,0,0,1,1.91-4.88c1.18-2.36,2.61-5,4.64-6.71a.44.44,0,0,1,.38-.1.46.46,0,0,1,.33.21c.07.1.88,1.35,1.73,3C62,16.22,67,16,67.62,16a17.62,17.62,0,0,1,11.44,3.34,44,44,0,0,1,6.26,6.32c.49.58,1,1.17,1.52,1.75a53.82,53.82,0,0,0,8.49,7.91c2.13,1.54,5.44,2.38,7.66.54a3,3,0,0,0,.89-3,2.37,2.37,0,0,0-1.79-1.88c-1.6-.35-2.92,1.26-4,2.88a.49.49,0,0,1-.45.2.45.45,0,0,1-.39-.29c-1.09-2.61-1.14-4.78-.14-6.47a6.24,6.24,0,0,1,4.48-2.76c0-3.07.71-5.31,2.21-6.68a6.47,6.47,0,0,1,5.43-1.37.48.48,0,0,1,.35.23.47.47,0,0,1,0,.43c-1.94,4.68-1.46,6.43-.41,10.28.1.35.2.71.3,1.09,1,3.8.7,7.06-.94,9.69-2.65,4.23-7.74,5.26-8,5.3a17.61,17.61,0,0,1-3,.27Z"/><path class="cls-1" d="M53,40.41a10.89,10.89,0,0,1-1.38-.09.48.48,0,1,1,.12-1,9.45,9.45,0,0,0,8.15-2.89.47.47,0,0,1,.67,0,.48.48,0,0,1,0,.68A10.33,10.33,0,0,1,53,40.41Z"/><path class="cls-1" d="M91.49,33.21a.39.39,0,0,1-.18,0,.44.44,0,0,1-.23-.59,3.31,3.31,0,0,0,.2-2.83,2.67,2.67,0,0,0-1.66-1.27.44.44,0,0,1-.29-.23.45.45,0,0,1,0-.36,4.69,4.69,0,0,0,.31-2.43c-.21-.56-1.27-.8-1.62-.84a.42.42,0,0,1-.34-.21.43.43,0,0,1,0-.41,2.54,2.54,0,0,0,.09-2c-.71-1.1-2.57-.57-2.59-.56a.47.47,0,0,1-.45-.12.48.48,0,0,1-.1-.46,3,3,0,0,0-.51-2.76c-1.22-1.25-3.84-.52-3.87-.51a.45.45,0,0,1-.45-.12.46.46,0,0,1-.1-.45c0-.06.45-1.45-.49-2-1.49-.95-3.2.26-3.22.27a.43.43,0,0,1-.44.05.47.47,0,0,1-.26-.36c0-.08-.26-1.9-1.86-2.12s-3.57,1.56-3.59,1.57a.42.42,0,0,1-.35.13.43.43,0,0,1-.32-.17,3.9,3.9,0,0,0-2.78-1.52,2.54,2.54,0,0,0-2.08,1.59.45.45,0,0,1-.32.28.45.45,0,0,1-.41-.12s-1.48-1.42-3-.87c-1.9.7-2.44,3-2.62,3.79v0a.45.45,0,0,1-.54.34.46.46,0,0,1-.34-.54v0c.2-.88.82-3.56,3.18-4.43a3.78,3.78,0,0,1,3.47.69A3.23,3.23,0,0,1,66.29,12a4.45,4.45,0,0,1,3.21,1.51,5.7,5.7,0,0,1,4-1.51A3.08,3.08,0,0,1,76,14.23a3.69,3.69,0,0,1,3.66,0,2.38,2.38,0,0,1,1,2.36c1-.17,2.92-.29,4.07.89a3.52,3.52,0,0,1,.87,3,2.89,2.89,0,0,1,2.89,1.07,2.9,2.9,0,0,1,.16,2.29,2.46,2.46,0,0,1,1.83,1.33,4.71,4.71,0,0,1-.16,2.6,3.45,3.45,0,0,1,1.79,1.58,4.19,4.19,0,0,1-.18,3.6.44.44,0,0,1-.41.27Z"/><path class="cls-1" d="M89.25,39.4h0a.44.44,0,0,1-.39-.5c.21-1.71-.8-2-1.69-2.3a2.43,2.43,0,0,1-.6-.23c-.48-.27-.5-.84-.52-1.45a2.84,2.84,0,0,0-.52-1.9c-.84-.93-2.49-.33-2.5-.33a.44.44,0,0,1-.44-.07.42.42,0,0,1-.16-.41,3.37,3.37,0,0,0-.78-2.72,4.09,4.09,0,0,0-3.13-.43.48.48,0,0,1-.4-.1.46.46,0,0,1-.15-.37,2.81,2.81,0,0,0-1.23-2.65,2.25,2.25,0,0,0-2.3-.16c-1.88,1-2.62,1.08-4.59-.32A2.2,2.2,0,0,0,68,25a3.31,3.31,0,0,0-2,1.9.45.45,0,1,1-.8-.4,4.14,4.14,0,0,1,2.54-2.37,3.06,3.06,0,0,1,2.56.57c1.66,1.18,2,1.12,3.65.26a3.17,3.17,0,0,1,3.22.2,3.63,3.63,0,0,1,1.64,2.9,4.53,4.53,0,0,1,3.36.72,3.71,3.71,0,0,1,1.12,2.87,3,3,0,0,1,2.84.74,3.58,3.58,0,0,1,.76,2.47,2.51,2.51,0,0,0,.08.71l.4.15A2.75,2.75,0,0,1,89.7,39a.46.46,0,0,1-.45.4Z"/><path class="cls-1" d="M44.79,34.72a.9.9,0,0,1-.15.55,3,3,0,0,1-.51.47,1.89,1.89,0,0,0-.94,1.51v2H11.12v-2a1.89,1.89,0,0,0-.94-1.51,3,3,0,0,1-.51-.47.9.9,0,0,1-.15-.55h0v0a.85.85,0,0,1,.15-.54,2.64,2.64,0,0,1,.51-.48,1.89,1.89,0,0,0,.94-1.51V23a1.89,1.89,0,0,0-.94-1.51A2.64,2.64,0,0,1,9.67,21a.85.85,0,0,1-.15-.54h0v0a.85.85,0,0,1,.15-.54,2.64,2.64,0,0,1,.51-.48,1.89,1.89,0,0,0,.94-1.51V15.72h.07c.84,0,1.65,0,2.41-.07V36.83H25.27a2,2,0,0,0,1.89,1.45A2,2,0,0,0,29,36.83H40.71V15.65c.77.07,1.58.07,2.41.07h.07v2.14a1.89,1.89,0,0,0,.94,1.51,2.64,2.64,0,0,1,.51.48.85.85,0,0,1,.15.54v0h0a.85.85,0,0,1-.15.54,2.64,2.64,0,0,1-.51.48A1.89,1.89,0,0,0,43.19,23v9.21a1.89,1.89,0,0,0,.94,1.51,2.64,2.64,0,0,1,.51.48.85.85,0,0,1,.15.54v0ZM16.06,15.11a10.63,10.63,0,0,0,1.52-.85A6.16,6.16,0,0,1,21.08,13a9.75,9.75,0,0,1,3.53.92,9.37,9.37,0,0,0,2,.66V33.11h-.11a20.35,20.35,0,0,0-3.61,1l-1.43.45a14.63,14.63,0,0,1-4.25.43,19.5,19.5,0,0,0-2.6.13V15.52a6.39,6.39,0,0,0,1.41-.41ZM29.7,13.93A9.75,9.75,0,0,1,33.23,13a6.16,6.16,0,0,1,3.5,1.25,10.63,10.63,0,0,0,1.52.85,6.32,6.32,0,0,0,1.42.41V35.08a19.5,19.5,0,0,0-2.6-.13,14.63,14.63,0,0,1-4.25-.43l-1.43-.45a20.35,20.35,0,0,0-3.61-1h-.06V14.58a9.67,9.67,0,0,0,2-.65Zm15,19c-.37-.29-.58-.47-.58-.77V23c0-.3.21-.48.58-.77a3.3,3.3,0,0,0,.71-.69,2.05,2.05,0,0,0,0-2.17,3.3,3.3,0,0,0-.71-.69c-.37-.29-.58-.47-.58-.77V14.65H43.4a13.41,13.41,0,0,1-4.73-.53,9.46,9.46,0,0,1-1.37-.77,7.2,7.2,0,0,0-4.07-1.41,10.49,10.49,0,0,0-3.93,1,6.85,6.85,0,0,1-2,.61H27a6.85,6.85,0,0,1-2-.61,10.49,10.49,0,0,0-3.93-1A7.2,7.2,0,0,0,17,13.35a9.46,9.46,0,0,1-1.37.77,13.41,13.41,0,0,1-4.73.53h-.73v3.21c0,.3-.21.48-.58.77a3.3,3.3,0,0,0-.71.69,2.05,2.05,0,0,0,0,2.17,3.3,3.3,0,0,0,.71.69c.37.29.58.47.58.77v9.21c0,.3-.21.48-.58.77a3.3,3.3,0,0,0-.71.69,1.9,1.9,0,0,0-.31,1.09,1.87,1.87,0,0,0,.31,1.08,3.08,3.08,0,0,0,.71.69c.37.29.58.47.58.77v3.09l0,0h34l0,0V37.25c0-.3.21-.48.58-.77a3.08,3.08,0,0,0,.71-.69,1.87,1.87,0,0,0,.31-1.08,1.9,1.9,0,0,0-.31-1.09,3.3,3.3,0,0,0-.71-.69Z"/><path class="cls-1" d="M149.43,34.72a.9.9,0,0,1-.15.55,2.63,2.63,0,0,1-.51.47,1.89,1.89,0,0,0-.94,1.51v2H115.76v-2a1.89,1.89,0,0,0-.94-1.51,3,3,0,0,1-.51-.47.9.9,0,0,1-.15-.55h0v0a.85.85,0,0,1,.15-.54,2.64,2.64,0,0,1,.51-.48,1.89,1.89,0,0,0,.94-1.51V23a1.89,1.89,0,0,0-.94-1.51,2.64,2.64,0,0,1-.51-.48.85.85,0,0,1-.15-.54h0v0a.85.85,0,0,1,.15-.54,2.64,2.64,0,0,1,.51-.48,1.89,1.89,0,0,0,.94-1.51V15.72h.07c.84,0,1.65,0,2.41-.07V36.83h11.67a2,2,0,0,0,3.78,0h11.67V15.65c.76.07,1.57.07,2.4.07h.07v2.14a1.89,1.89,0,0,0,.94,1.51,2.37,2.37,0,0,1,.51.48.85.85,0,0,1,.15.54v0h0a.85.85,0,0,1-.15.54,2.37,2.37,0,0,1-.51.48,1.89,1.89,0,0,0-.94,1.51v9.21a1.89,1.89,0,0,0,.94,1.51,2.37,2.37,0,0,1,.51.48.85.85,0,0,1,.15.54v0ZM120.7,15.11a10.63,10.63,0,0,0,1.52-.85,6.16,6.16,0,0,1,3.5-1.25,9.75,9.75,0,0,1,3.53.92,9.37,9.37,0,0,0,2,.66V33.11h-.11a20.35,20.35,0,0,0-3.61,1l-1.43.45a14.63,14.63,0,0,1-4.25.43,19.5,19.5,0,0,0-2.6.13V15.52a6.24,6.24,0,0,0,1.41-.41Zm13.64-1.18a9.75,9.75,0,0,1,3.53-.92,6.16,6.16,0,0,1,3.5,1.25,10.63,10.63,0,0,0,1.52.85,6.32,6.32,0,0,0,1.42.41V35.08a19.5,19.5,0,0,0-2.6-.13,14.63,14.63,0,0,1-4.25-.43L136,34.07a20.35,20.35,0,0,0-3.61-1h-.06V14.58a9.67,9.67,0,0,0,2-.65Zm15,19c-.37-.29-.58-.47-.58-.77V23c0-.3.21-.48.58-.77a3.3,3.3,0,0,0,.71-.69,2,2,0,0,0,0-2.17,3.3,3.3,0,0,0-.71-.69c-.37-.29-.58-.47-.58-.77V14.65H148a13.41,13.41,0,0,1-4.73-.53,9.46,9.46,0,0,1-1.37-.77,7.17,7.17,0,0,0-4.07-1.41,10.49,10.49,0,0,0-3.93,1,6.85,6.85,0,0,1-2,.61h-.23a6.72,6.72,0,0,1-2-.61,10.59,10.59,0,0,0-3.94-1,7.2,7.2,0,0,0-4.07,1.41,9.46,9.46,0,0,1-1.37.77,13.41,13.41,0,0,1-4.73.53h-.73v3.21c0,.3-.21.48-.58.77a3.3,3.3,0,0,0-.71.69,2.05,2.05,0,0,0,0,2.17,3.3,3.3,0,0,0,.71.69c.37.29.58.47.58.77v9.21c0,.3-.21.48-.58.77a3.3,3.3,0,0,0-.71.69,1.9,1.9,0,0,0-.31,1.09,1.87,1.87,0,0,0,.31,1.08,3.08,3.08,0,0,0,.71.69c.37.29.58.47.58.77v3.09l0,0h34l0,0V37.25c0-.3.21-.48.58-.77a3.08,3.08,0,0,0,.71-.69,2,2,0,0,0,.32-1.08,2,2,0,0,0-.32-1.09,3.3,3.3,0,0,0-.71-.69Z"/><path class="cls-1" d="M145.34,116.63,79.48,53.1,13.61,116.63A85.8,85.8,0,0,1,5.14,79.25V51.07H153.81V79.25a85.8,85.8,0,0,1-8.47,37.38Zm-21,6.62a13.1,13.1,0,1,1,0-18.52,13.09,13.09,0,0,1,0,18.52ZM66.38,81.5a13.1,13.1,0,1,1,13.1,13.1,13.09,13.09,0,0,1-13.1-13.1Zm54,68.32c-17.68,16.39-36,24.65-40.91,25.89-4.91-1.24-23.24-9.5-40.92-25.89l-1.3-1.22,42.22-44.82,42.21,44.82-1.3,1.22ZM34.64,123.25a13.1,13.1,0,1,1,18.52,0,13.1,13.1,0,0,1-18.52,0ZM153.81,5.14V49H5.14V5.14ZM155.93,3H3V79.24c-.1,33.4,18.48,57.66,34.1,72.13,17,15.78,36.18,25.18,42.2,26.49l.16,0,.15,0c6-1.31,25.19-10.71,42.21-26.49,15.61-14.47,34.19-38.73,34.09-72.13V3Z"/></svg>